/* XPM */
static char *result[] = {
/* columns rows colors chars-per-pixel */
"64 64 4 1 ",
"  c #071821",
". c #306850",
"X c #86C06C",
"o c #E0F8CF",
/* pixels */
"oooooooooooooooooooooooooooooooooooooooooooooooooooooooooooooooo",
"oooooooooooooooooooooooooooooooooooooooooooooooooooooooooooooooo",
"oooooooooooooooooooooooooooooooooooooooooooooooooooooooooooooooo",
"oooooooooXXXX..                                  ..XXXXooooooooo",
"oooooooooXXXX..                                  ..XXXXooooooooo",
"ooooXX...      ......XXXXXXXXX....XXXXXXX......XX      ...XXoooo",
"ooooXX...      ......XXXXXXXXX....XXXXXXX......XX      ...XXoooo",
"ooooXX...      ......XXXXXXXXX....XXXXXXX......XX      ...XXoooo",
"ooXX     ..XXXXXX..XXXXXXXXXXX..XXXXXXXXXXX..XXXXXXXX..     XXoo",
"ooXX     ..XXXXXX..XXXXXXXXXXX..XXXXXXXXXXX..XXXXXXXX..     XXoo",
"XX  .....XXXXXX..................................XX..XXXXX..  XX",
"XX  .....XXXXXX..................................XX..XXXXX..  XX",
"XX  .....XXXXXX..................................XX..XXXXX..  XX",
"..  XXXXX..XX....                              ....XXXXXXXXX  ..",
"..  XXXXX..XX....                              ....XXXXXXXXX  ..",
"  ..XXXXXXX..    ..............................    ..XXXXXXX..  ",
"  ..XXXXXXX..    ..............................    ..XXXXXXX..  ",
"  .........  ..                                  ..  .........  ",
"  .........  ..                                  ..  .........  ",
"  .........  ..                                  ..  .........  ",
"  XXXXXXX..                                          ..XXXXXXX  ",
"  XXXXXXX..                                          ..XXXXXXX  ",
"  ..XXXXXXX..                                      ..XXXXXXX..  ",
"  ..XXXXXXX..                                      ..XXXXXXX..  ",
"  ..XXXXXXX..                                      ..XXXXXXX..  ",
"    XXXXXXXXX....                              ....XXXXXXXXX    ",
"    XXXXXXXXX....                              ....XXXXXXXXX    ",
"    ..XXXXX..XXXXXXXX.......XXXXXXXX.......XXXXXXXX..XXXXX..    ",
"    ..XXXXX..XXXXXXXX.......XXXXXXXX.......XXXXXXXX..XXXXX..    ",
"    ..XXXXX..XXXXXXXX.......XXXXXXXX.......XXXXXXXX..XXXXX..    ",
"  XX     ..XXXXXXXXXXXX...XXXXXXXXXXXX...XXXXXXXXXXXX..     ..  ",
"  XX     ..XXXXXXXXXXXX...XXXXXXXXXXXX...XXXXXXXXXXXX..     ..  ",
"  .......      ..XXXXXX...XXXXXXXXXXXX...XXXXXX..         ....  ",
"  .......      ..XXXXXX...XXXXXXXXXXXX...XXXXXX..         ....  ",
"  .......  XX..                                  XX....   ....  ",
"  .......  XX..                                  XX....   ....  ",
"  .......  XX..                                  XX....   ....  ",
"    .....  ......XXXX..   XX..........   XX..XX........   ..    ",
"    .....  ......XXXX..   XX..........   XX..XX........   ..    ",
"..         ......XX....   ............   ..............       ..",
"..         ......XX....   ............   ..............       ..",
"..         ......XX....   ............   ..............       ..",
"XX             ......     ..........       ......             XX",
"XX             ......     ..........       ......             XX",
"XX    ...                                              ...    XX",
"XX    ...                                              ...    XX",
"oo  ..     ....                                  ..  ..   ..  oo",
"oo  ..     ....                                  ..  ..   ..  oo",
"oo  ..     ....                                  ..  ..   ..  oo",
"oo    ...  ........  .........  .........  ........       ..  oo",
"oo    ...  ........  .........  .........  ........       ..  oo",
"oo..     ..  ......  .....      ......     ........  ..     ..oo",
"oo..     ..  ......  .....      ......     ........  ..     ..oo",
"oo..     ..  ......  .....      ......     ........  ..     ..oo",
"ooXX..   ....      ..     ....  ..    .....  ....  ....   ..XXoo",
"ooXX..   ....      ..     ....  ..    .....  ....  ....   ..XXoo",
"ooooXX...      ....  ...........  ...........          ...XXoooo",
"ooooXX...      ....  ...........  ...........          ...XXoooo",
"ooooXX...      ....  ...........  ...........          ...XXoooo",
"ooooooXXXXXXX..                                  ..XXXXXXXoooooo",
"ooooooXXXXXXX..                                  ..XXXXXXXoooooo",
"oooooooooooooooooooooooooooooooooooooooooooooooooooooooooooooooo",
"oooooooooooooooooooooooooooooooooooooooooooooooooooooooooooooooo",
"oooooooooooooooooooooooooooooooooooooooooooooooooooooooooooooooo"
};
