/* XPM */
static char *result[] = {
/* columns rows colors chars-per-pixel */
"64 64 8 1 ",
"  c #2F2F2E",
". c #3B3B39",
"X c #4F4F4E",
"o c #9D5021",
"O c #D67941",
"+ c gray72",
"@ c #E0F8CF",
"# c white",
/* pixels */
"@@@@@@@@@@@@@@@@@@@@@@@@@@@@@@@@@@@@@@@@@@@@@@@@@@@@@@@@@@@@@@@@",
"@@@@@@@@@@@@@@@@@@@@@@@@@@@@@@@@@@@@@@@@@@@@@@@@@@@@@@@@@@@@@@@@",
"@@@@@@@@@@@@@@@@@@@@@@@@@@@@@@@@@@@@@@@@@@@@@@@@@@@@@@@@@@@@@@@@",
"@@@@@@@@@@@@@@@@@@@@@@@@@@@@@@@@@@@@@@@@@@@@@@@@@@@@@@@@@@@@@@@@",
"@@@@@@@@@@@@@@@@@@@@@@@@@@@@@@@@@@@@@@@@@@@@@@@@@@@@@@@@@@@@@@@@",
"@@@@@@@@@@@@@@@@@@@@@@      @@@@@@@@@@@@@@@@@@@@@@@@@@@@@@@@@@@@",
"@@@@@@@@@@@@@@@@@@@@@@      @@@@@@@@@@@@@@@@@@@@@@@@@@@@@@@@@@@@",
"@@@@@@@@@@@@@@@@@@@@@@      @@@@@@@@@@@@@@@@@@@@@@@@@@@@@@@@@@@@",
"@@@@@@@@@@@@@@@@@@@@@@      @@@@@@@@@@@@@@@@@@@@@@@@@@@@@@@@@@@@",
"@@@@@@@         @@@@@@   ooo   @@@@@@@@@@@@@@@@@@@@@@@@@@@@@@@@@",
"@@@@@@@         @@@@@@   ooo   @@@@@@@@@@@@@@@@@@@@@@@@@@@@@@@@@",
"@@@@@@@         @@@@@@   ooo   @@@@@@@@@@@@@@@@@@@@@@@@@@@@@@@@@",
"@@@@@@@   OOOooo   @@@   ###ooo   @@@@@@@@@@@@@@@@@@@@@@@@@@@@@@",
"@@@@@@@   OOOooo   @@@   ###ooo   @@@@@@@@@@@@@@@@@@@@@@@@@@@@@@",
"@@@@@@@   OOOooo   @@@   ###ooo   @@@@@@@@@@@@@@@@@@@@@@@@@@@@@@",
"@@@@@@@   OOOooo   @@@   ###ooo   @@@@@@@@@@@@@@@@@@@@@@@@@@@@@@",
"@@@@@@@@@@               ###ooo   @@@@@@@@@@@@@@@@@@@@@      @@@",
"@@@@@@@@@@               ###ooo   @@@@@@@@@@@@@@@@@@@@@      @@@",
"@@@@@@@@@@               ###ooo   @@@@@@@@@@@@@@@@@@@@@      @@@",
"@@@@@@@@@@   OOOOOOOOOOOOoooooo   @@@@@@@@@@@@@@@      +++   @@@",
"@@@@@@@@@@   OOOOOOOOOOOOoooooo   @@@@@@@@@@@@@@@      +++   @@@",
"@@@@@@@@@@   OOOOOOOOOOOOoooooo   @@@@@@@@@@@@@@@      +++   @@@",
"@@@@@@@@@@   OOOOOOOOOOOOoooooo   @@@@@@@@@@@@@@@      +++   @@@",
"@@@@@@@   ooooooooo   OOOoooooo   @@@@@@@@@@@@   OOO###+++   @@@",
"@@@@@@@   ooooooooo   OOOoooooo   @@@@@@@@@@@@   OOO###+++   @@@",
"@@@@@@@   ooooooooo   OOOoooooo   @@@@@@@@@@@@   OOO###+++   @@@",
"@@@@@@@   ooooooooo   OOOoooooo   @@@@@@@@@@@@   OOO###+++   @@@",
"@@@@         OOOOOOOOOOOOooooooooo   @@@@@@   OOOOOOooo+++   @@@",
"@@@@         OOOOOOOOOOOOooooooooo   @@@@@@   OOOOOOooo+++   @@@",
"@@@@         OOOOOOOOOOOOooooooooo   @@@@@@   OOOOOOooo+++   @@@",
"@@@@   #####################++++++   @@@   OOOOOOOOOooo   @@@@@@",
"@@@@   #####################++++++   @@@   OOOOOOOOOooo   @@@@@@",
"@@@@   #####################++++++   @@@   OOOOOOOOOooo   @@@@@@",
"@@@@   #####################++++++   @@@   OOOOOOOOOooo   @@@@@@",
"@@@@@@@      #########++++++               OOOOOOoooooo   @@@@@@",
"@@@@@@@      #########++++++               OOOOOOoooooo   @@@@@@",
"@@@@@@@      #########++++++               OOOOOOoooooo   @@@@@@",
"@@@@@@@@@@@@@               ooooooooooooooo   oooooo   @@@@@@@@@",
"@@@@@@@@@@@@@               ooooooooooooooo   oooooo   @@@@@@@@@",
"@@@@@@@@@@@@@               ooooooooooooooo   oooooo   @@@@@@@@@",
"@@@@@@@@@@@@@               ooooooooooooooo   oooooo   @@@@@@@@@",
"@@@@@@@@@@@@@   ######OOOOOOOOOOOOoooooooooooo      @@@@@@@@@@@@",
"@@@@@@@@@@@@@   ######OOOOOOOOOOOOoooooooooooo      @@@@@@@@@@@@",
"@@@@@@@@@@@@@   ######OOOOOOOOOOOOoooooooooooo      @@@@@@@@@@@@",
"@@@@@@@@@@@@@   ######OOOOOOOOOOOOoooooooooooo      @@@@@@@@@@@@",
"@@@@@@@@@@@@@      ++++++oooOOOOOOOOOooooooooo   @@@@@@@@@@@@@@@",
"@@@@@@@@@@@@@      ++++++oooOOOOOOOOOooooooooo   @@@@@@@@@@@@@@@",
"@@@@@@@@@@@@@      ++++++oooOOOOOOOOOooooooooo   @@@@@@@@@@@@@@@",
"@@@@@@@@@@@@@   ooo         OOO            ooo   @@@@@@@@@@@@@@@",
"@@@@@@@@@@@@@   ooo         OOO            ooo   @@@@@@@@@@@@@@@",
"@@@@@@@@@@@@@   ooo         OOO            ooo   @@@@@@@@@@@@@@@",
"@@@@@@@@@@@@@   ooo         OOO            ooo   @@@@@@@@@@@@@@@",
"@@@@@@@@@@@@@   XXX   @@@   XXX      ...   ...   @@@@@@@@@@@@@@@",
"@@@@@@@@@@@@@   XXX   @@@   XXX      ...   ...   @@@@@@@@@@@@@@@",
"@@@@@@@@@@@@@   XXX   @@@   XXX      ...   ...   @@@@@@@@@@@@@@@",
"@@@@@@@@@@@@@      @@@@@@      @@@@@@   @@@      @@@@@@@@@@@@@@@",
"@@@@@@@@@@@@@      @@@@@@      @@@@@@   @@@      @@@@@@@@@@@@@@@",
"@@@@@@@@@@@@@      @@@@@@      @@@@@@   @@@      @@@@@@@@@@@@@@@",
"@@@@@@@@@@@@@      @@@@@@      @@@@@@   @@@      @@@@@@@@@@@@@@@",
"@@@@@@@@@@@@@@@@@@@@@@@@@@@@@@@@@@@@@@@@@@@@@@@@@@@@@@@@@@@@@@@@",
"@@@@@@@@@@@@@@@@@@@@@@@@@@@@@@@@@@@@@@@@@@@@@@@@@@@@@@@@@@@@@@@@",
"@@@@@@@@@@@@@@@@@@@@@@@@@@@@@@@@@@@@@@@@@@@@@@@@@@@@@@@@@@@@@@@@",
"@@@@@@@@@@@@@@@@@@@@@@@@@@@@@@@@@@@@@@@@@@@@@@@@@@@@@@@@@@@@@@@@",
"@@@@@@@@@@@@@@@@@@@@@@@@@@@@@@@@@@@@@@@@@@@@@@@@@@@@@@@@@@@@@@@@"
};
