/* XPM */
static char *result[] = {
/* columns rows colors chars-per-pixel */
"64 64 8 1 ",
"  c #2F2F2E",
". c #3B3B39",
"X c #4F4F4E",
"o c #9D5021",
"O c #D67941",
"+ c gray72",
"@ c #E0F8CF",
"# c white",
/* pixels */
"@@@@@@@@@@@@@@@@@@@@@@@@@@@@@@@@@@@@@@@@@@@@@@@@@@@@@@@@@@@@@@@@",
"@@@@@@@@@@@@@@@@@@@@@@@@@@@@@@@@@@@@@@@@@@@@@@@@@@@@@@@@@@@@@@@@",
"@@@@@@@@@@@@@@@@@@@@@@@@@@@@@@@@@@@@@@@@@@@@@@@@@@@@@@@@@@@@@@@@",
"@@@@@@@@@@@@@@@@@@@@@@@@@@@@@@@@@@@@@@@@@@@@@@@@@@@@@@@@@@@@@@@@",
"@@@@@@@@@@@@@@@@@@@@@@@@@@@@@@@@@@@@@@@@@@@@@@@@@@@@@@@@@@@@@@@@",
"@@@@@@@@@@@@@@@@@@@@@@@@@@@@@@@@@@@@      @@@@@@@@@@@@@@@@@@@@@@",
"@@@@@@@@@@@@@@@@@@@@@@@@@@@@@@@@@@@@      @@@@@@@@@@@@@@@@@@@@@@",
"@@@@@@@@@@@@@@@@@@@@@@@@@@@@@@@@@@@@      @@@@@@@@@@@@@@@@@@@@@@",
"@@@@@@@@@@@@@@@@@@@@@@@@@@@@@@@@@@@@      @@@@@@@@@@@@@@@@@@@@@@",
"@@@@@@@@@@@@@@@@@@@@@@@@@@@@@@@@@   ooo   @@@@@@         @@@@@@@",
"@@@@@@@@@@@@@@@@@@@@@@@@@@@@@@@@@   ooo   @@@@@@         @@@@@@@",
"@@@@@@@@@@@@@@@@@@@@@@@@@@@@@@@@@   ooo   @@@@@@         @@@@@@@",
"@@@@@@@@@@@@@@@@@@@@@@@@@@@@@@   ooo###   @@@   oooOOO   @@@@@@@",
"@@@@@@@@@@@@@@@@@@@@@@@@@@@@@@   ooo###   @@@   oooOOO   @@@@@@@",
"@@@@@@@@@@@@@@@@@@@@@@@@@@@@@@   ooo###   @@@   oooOOO   @@@@@@@",
"@@@@@@@@@@@@@@@@@@@@@@@@@@@@@@   ooo###   @@@   oooOOO   @@@@@@@",
"@@@      @@@@@@@@@@@@@@@@@@@@@   ooo###               @@@@@@@@@@",
"@@@      @@@@@@@@@@@@@@@@@@@@@   ooo###               @@@@@@@@@@",
"@@@      @@@@@@@@@@@@@@@@@@@@@   ooo###               @@@@@@@@@@",
"@@@   +++      @@@@@@@@@@@@@@@   ooooooOOOOOOOOOOOO   @@@@@@@@@@",
"@@@   +++      @@@@@@@@@@@@@@@   ooooooOOOOOOOOOOOO   @@@@@@@@@@",
"@@@   +++      @@@@@@@@@@@@@@@   ooooooOOOOOOOOOOOO   @@@@@@@@@@",
"@@@   +++      @@@@@@@@@@@@@@@   ooooooOOOOOOOOOOOO   @@@@@@@@@@",
"@@@   +++###OOO   @@@@@@@@@@@@   ooooooOOO   ooooooooo   @@@@@@@",
"@@@   +++###OOO   @@@@@@@@@@@@   ooooooOOO   ooooooooo   @@@@@@@",
"@@@   +++###OOO   @@@@@@@@@@@@   ooooooOOO   ooooooooo   @@@@@@@",
"@@@   +++###OOO   @@@@@@@@@@@@   ooooooOOO   ooooooooo   @@@@@@@",
"@@@   +++oooOOOOOO   @@@@@@   oooooooooOOOOOOOOOOOO         @@@@",
"@@@   +++oooOOOOOO   @@@@@@   oooooooooOOOOOOOOOOOO         @@@@",
"@@@   +++oooOOOOOO   @@@@@@   oooooooooOOOOOOOOOOOO         @@@@",
"@@@@@@   oooOOOOOOOOO   @@@   ++++++#####################   @@@@",
"@@@@@@   oooOOOOOOOOO   @@@   ++++++#####################   @@@@",
"@@@@@@   oooOOOOOOOOO   @@@   ++++++#####################   @@@@",
"@@@@@@   oooOOOOOOOOO   @@@   ++++++#####################   @@@@",
"@@@@@@   ooooooOOOOOO               ++++++#########      @@@@@@@",
"@@@@@@   ooooooOOOOOO               ++++++#########      @@@@@@@",
"@@@@@@   ooooooOOOOOO               ++++++#########      @@@@@@@",
"@@@@@@@@@   oooooo   ooooooooooooooo               @@@@@@@@@@@@@",
"@@@@@@@@@   oooooo   ooooooooooooooo               @@@@@@@@@@@@@",
"@@@@@@@@@   oooooo   ooooooooooooooo               @@@@@@@@@@@@@",
"@@@@@@@@@   oooooo   ooooooooooooooo               @@@@@@@@@@@@@",
"@@@@@@@@@@@@      ooooooooooooOOOOOOOOOOOO######   @@@@@@@@@@@@@",
"@@@@@@@@@@@@      ooooooooooooOOOOOOOOOOOO######   @@@@@@@@@@@@@",
"@@@@@@@@@@@@      ooooooooooooOOOOOOOOOOOO######   @@@@@@@@@@@@@",
"@@@@@@@@@@@@      ooooooooooooOOOOOOOOOOOO######   @@@@@@@@@@@@@",
"@@@@@@@@@@@@@@@   oooooooooOOOOOOOOOooo++++++      @@@@@@@@@@@@@",
"@@@@@@@@@@@@@@@   oooooooooOOOOOOOOOooo++++++      @@@@@@@@@@@@@",
"@@@@@@@@@@@@@@@   oooooooooOOOOOOOOOooo++++++      @@@@@@@@@@@@@",
"@@@@@@@@@@@@@@@   ooo            OOO         ooo   @@@@@@@@@@@@@",
"@@@@@@@@@@@@@@@   ooo            OOO         ooo   @@@@@@@@@@@@@",
"@@@@@@@@@@@@@@@   ooo            OOO         ooo   @@@@@@@@@@@@@",
"@@@@@@@@@@@@@@@   ooo            OOO         ooo   @@@@@@@@@@@@@",
"@@@@@@@@@@@@@@@   ...   ...      XXX   @@@   XXX   @@@@@@@@@@@@@",
"@@@@@@@@@@@@@@@   ...   ...      XXX   @@@   XXX   @@@@@@@@@@@@@",
"@@@@@@@@@@@@@@@   ...   ...      XXX   @@@   XXX   @@@@@@@@@@@@@",
"@@@@@@@@@@@@@@@      @@@   @@@@@@      @@@@@@      @@@@@@@@@@@@@",
"@@@@@@@@@@@@@@@      @@@   @@@@@@      @@@@@@      @@@@@@@@@@@@@",
"@@@@@@@@@@@@@@@      @@@   @@@@@@      @@@@@@      @@@@@@@@@@@@@",
"@@@@@@@@@@@@@@@      @@@   @@@@@@      @@@@@@      @@@@@@@@@@@@@",
"@@@@@@@@@@@@@@@@@@@@@@@@@@@@@@@@@@@@@@@@@@@@@@@@@@@@@@@@@@@@@@@@",
"@@@@@@@@@@@@@@@@@@@@@@@@@@@@@@@@@@@@@@@@@@@@@@@@@@@@@@@@@@@@@@@@",
"@@@@@@@@@@@@@@@@@@@@@@@@@@@@@@@@@@@@@@@@@@@@@@@@@@@@@@@@@@@@@@@@",
"@@@@@@@@@@@@@@@@@@@@@@@@@@@@@@@@@@@@@@@@@@@@@@@@@@@@@@@@@@@@@@@@",
"@@@@@@@@@@@@@@@@@@@@@@@@@@@@@@@@@@@@@@@@@@@@@@@@@@@@@@@@@@@@@@@@"
};
