/* XPM */
static char *result[] = {
/* columns rows colors chars-per-pixel */
"64 64 4 1 ",
"  c #071821",
". c #306850",
"X c #86C06C",
"o c #E0F8CF",
/* pixels */
"oooooooooooooooooooooooooooooooooooooooooooooooooooooooooooooooo",
"oooooooooooooooooooooooooooooooooooooooooooooooooooooooooooooooo",
"oooooooooooooooooXX..                        XXooooooooooooooooo",
"ooooooooooooooXX.    ........................  .XXoooooooooooooo",
"ooooooooooooooXX.    ........................  .XXoooooooooooooo",
"oooooooooooX..   .....XXXXXXXX....XXXXXXXX.....   .XXooooooooooo",
"oooooooooXX   .....XXXXXXXXXXXXXXXXXXXXXXXXXX.....   XXooooooooo",
"oooooooooXX   .....XXXXXXXXXXXXXXXXXXXXXXXXXX.....   XXooooooooo",
"ooooooooX  ......XXXXXXX.XXXXXXXXXXXXXXXXXXXXXX......  Xoooooooo",
"oooooooo.  .....XXXXXXXXX....XXXXXX..XXXXX.XXXXX.....  .oooooooo",
"oooooooo.  .....XXXXXXXXX....XXXXXX..XXXXX.XXXXX.....  .oooooooo",
"ooooooXX .......XXXXXXXXXXXXXXXXXXXXXX....XXXXXX....... XXoooooo",
"oooooo.. .......XXXXXXXXXXXXXXXXXXXXXXXXXXXXXXXX....... ..oooooo",
"oooooo.. .......XXXXXXXXXXXXXXXXXXXXXXXXXXXXXXXX....... ..oooooo",
"oooooo  ....XX...XXXXX..XXXXXXXXXXXXXXXXXXXXXXX........   oooooo",
"oooooo  ....XXXXXXX...XXXXXXX.XXXX.XXXXX..XXX..........   oooooo",
"oooooo  ....XXXXXXX...XXXXXXX.XXXX.XXXXX..XXX..........   oooooo",
"oooooo  ........XXXXXXXXXXXXXX....XXXXXXXX.....XXX.....   oooooo",
"oooooo.. .......XXXXXXXXXXXXXXXXXXXXXXXXXXXXXXXXXX..... ..oooooo",
"oooooo.. .......XXXXXXXXXXXXXXXXXXXXXXXXXXXXXXXXXX..... ..oooooo",
"oooooo.. ........XXXXXXXX..XXXXXXXXXXXXXXXXXXXXX....... ..oooooo",
"oooooo  ....XXXX...XX....XXXXXXXXXXXX.XXXXXXXXX.XX..... ..oooooo",
"oooooo  ....XXXX...XX....XXXXXXXXXXXX.XXXXXXXXX.XX..... ..oooooo",
"oooooo  ....XXXXX.......XXX..XXX.....XXXXXXXXXXX........  oooooo",
"oooooo   .....XXXXXXXXXXXXXXX......XXX..XXXXX...........  oooooo",
"oooooo   .....XXXXXXXXXXXXXXX......XXX..XXXXX...........  oooooo",
"oooooo     .....XXXXXXXXXXXXXXXXXXXXXXXX..........X.....  oooooo",
"oooooo     ........XXXXXXXXXXXXXXXXXXXXXXX.....XXX...   ..oooooo",
"oooooo     ........XXXXXXXXXXXXXXXXXXXXXXX.....XXX...   ..oooooo",
"oooooo.. ...XX........XXXXX..XXXXXXXXXXXXX...........   ..oooooo",
"oooooo.. .....XX.........XXXX......XXXXX.. ..  ...        oooooo",
"oooooo.. .....XX.........XXXX......XXXXX.. ..  ...        oooooo",
"oooooo      .....     ...XXXXX.............    ...   ...  oooooo",
"oooooo  .   .......   ............ ........        .....  oooooo",
"oooooo  .   .......   ............ ........        .....  oooooo",
"oooooo  ...     .........  .......   ...           ....   oooooo",
"oooooo     .       ..    ....   ...       ...             oooooo",
"oooooo     .       ..    ....   ...       ...             oooooo",
"oooooo     ...     ...   ....        ...  ...  .   ..     oooooo",
"oooooo..    ....                   .......      ...     ..oooooo",
"oooooo..    ....                   .......      ...     ..oooooo",
"oooooooo.        ..                                    .oooooooo",
"oooooooo.       .....    ....     ...        ...       .oooooooo",
"oooooooo.       .....    ....     ...        ...       .oooooooo",
"ooooooooo...       ...   ....     ...   ..   ..      ..ooooooooo",
"oooooooooooo..       ......               ...      ..ooooooooooo",
"oooooooooooo..       ......               ...      ..ooooooooooo",
"oooooooooooooo..                                  .ooooooooooooo",
"ooooooooooooooooo..                          .....oooooooooooooo",
"ooooooooooooooooo..                          .....oooooooooooooo",
"oooooooooooooooooooooo  .                 oooooooooooooooooooooo",
"ooooooooXXXXXXXXXXXXXX  ...               XXXXXXXXXXXXXXoooooooo",
"ooooooooXXXXXXXXXXXXXX  ...               XXXXXXXXXXXXXXoooooooo",
"ooooooXXXXXXXXXXXXXXX XX.  ...  ...        XXXXXXXXXXXXXXXoooooo",
"ooooooXXXXXXXXXXXXX  X...  XX...XX.   ..     XXXXXXXXXXXXXoooooo",
"ooooooXXXXXXXXXXXXX  X...  XX...XX.   ..     XXXXXXXXXXXXXoooooo",
"ooooooooXXXoXXXXXXX  X.. XX..........   ..   XXXXXXXXooXoooooooo",
"ooooooooooooooXXXXXXX   X.....  ......     XXXXoXXoooooooooooooo",
"ooooooooooooooXXXXXXX   X.....  ......     XXXXoXXoooooooooooooo",
"oooooooooooooooooooooX  X....      .....  Xooooooooooooooooooooo",
"ooooooooooooooooooooooXX     XXXXXX     XXoooooooooooooooooooooo",
"ooooooooooooooooooooooXX     XXXXXX     XXoooooooooooooooooooooo",
"oooooooooooooooooooooooooooooooooooooooooooooooooooooooooooooooo",
"oooooooooooooooooooooooooooooooooooooooooooooooooooooooooooooooo"
};
